<?xml version="1.0" encoding="UTF-8" standalone="no"?>
<svg width="134px" height="134px" viewBox="0 0 134 134" version="1.1" xmlns="http://www.w3.org/2000/svg" xmlns:xlink="http://www.w3.org/1999/xlink">
    <!-- Generator: Sketch 48.1 (47250) - http://www.bohemiancoding.com/sketch -->
    <title>add_big</title>
    <desc>Created with Sketch.</desc>
    <defs></defs>
    <g id="Page-1" stroke="none" stroke-width="1" fill="none" fill-rule="evenodd">
        <g id="add_big" fill="#3398DC" fill-rule="nonzero">
            <path d="M67,0 C29.9959,0 0,29.9959 0,67 C0,104.0041 29.9959,134 67,134 C104.0041,134 134,104.0041 134,67 C134,29.9959 104.0041,0 67,0 Z M93.5610334,71.4666666 L75.9333334,71.4666666 C74.7486997,71.4666666 73.6125855,71.9372605 72.774923,72.774923 C71.9372605,73.6125855 71.4666666,74.7486997 71.4666666,75.9333334 L71.4666666,93.5610334 C71.4666666,95.7854334 69.9457666,97.8490334 67.7504,98.2063666 C66.4528474,98.4267079 65.1241435,98.063876 64.1186625,97.2146405 C63.1131815,96.365405 62.5331745,95.116128 62.5333334,93.8 L62.5333334,75.9333334 C62.5333334,74.7486997 62.0627395,73.6125855 61.225077,72.774923 C60.3874145,71.9372605 59.2513003,71.4666666 58.0666666,71.4666666 L40.4389666,71.4666666 C38.2145666,71.4666666 36.1509666,69.9457666 35.7936334,67.7504 C35.5732921,66.4528474 35.936124,65.1241435 36.7853595,64.1186625 C37.634595,63.1131815 38.883872,62.5331745 40.2,62.5333334 L58.0666666,62.5333334 C59.2513003,62.5333334 60.3874145,62.0627395 61.225077,61.225077 C62.0627395,60.3874145 62.5333334,59.2513003 62.5333334,58.0666666 L62.5333334,40.4389666 C62.5333334,38.2145666 64.0542334,36.1509666 66.2496,35.7936334 C67.5468871,35.574914 68.8746812,35.9383407 69.8797555,36.7872326 C70.8848298,37.6361246 71.4652708,38.8844051 71.4666666,40.2 L71.4666666,58.0666666 C71.4666666,59.2513003 71.9372605,60.3874145 72.774923,61.225077 C73.6125855,62.0627395 74.7486997,62.5333334 75.9333334,62.5333334 L93.8,62.5333334 C95.116128,62.5331745 96.365405,63.1131815 97.2146405,64.1186625 C98.063876,65.1241435 98.4267079,66.4528474 98.2063666,67.7504 C97.8468,69.948 95.7854332,71.4666666 93.5610334,71.4666666 Z" id="Shape"></path>
        </g>
    </g>
</svg>