<?xml version="1.0" encoding="UTF-8" standalone="no"?>
<svg width="18px" height="18px" viewBox="0 0 18 18" version="1.1" xmlns="http://www.w3.org/2000/svg" xmlns:xlink="http://www.w3.org/1999/xlink">
    <!-- Generator: Sketch 48.1 (47250) - http://www.bohemiancoding.com/sketch -->
    <title>search</title>
    <desc>Created with Sketch.</desc>
    <defs></defs>
    <g id="Page-1" stroke="none" stroke-width="1" fill="none" fill-rule="evenodd">
        <g id="search" fill="#216DB9" fill-rule="nonzero">
            <path d="M17.6332767,15.9219015 L13.2325976,11.5212224 C15.3106961,8.70967742 15.0662139,4.67572156 12.4991511,2.10865874 C9.68760611,-0.702886248 5.04244482,-0.702886248 2.10865874,2.10865874 C-0.702886248,4.92020374 -0.702886248,9.56536503 2.10865874,12.4991511 C4.67572156,15.0662139 8.70967742,15.3106961 11.5212224,13.2325976 L15.9219015,17.6332767 C16.4108659,18.1222411 17.1443124,18.1222411 17.6332767,17.6332767 C18.1222411,17.1443124 18.1222411,16.2886248 17.6332767,15.9219015 Z M11.1544992,11.1544992 C8.95415959,13.3548387 5.53140917,13.3548387 3.33106961,11.1544992 C1.13073005,8.95415959 1.13073005,5.53140917 3.33106961,3.33106961 C5.53140917,1.13073005 8.95415959,1.13073005 11.1544992,3.33106961 C13.2325976,5.53140917 13.2325976,8.95415959 11.1544992,11.1544992 Z" id="Shape"></path>
        </g>
    </g>
</svg>