<?xml version="1.0" encoding="UTF-8" standalone="no"?>
<svg width="30px" height="25px" viewBox="0 0 30 25" version="1.1" xmlns="http://www.w3.org/2000/svg" xmlns:xlink="http://www.w3.org/1999/xlink">
    <!-- Generator: Sketch 48.1 (47250) - http://www.bohemiancoding.com/sketch -->
    <title>2</title>
    <desc>Created with Sketch.</desc>
    <defs></defs>
    <g id="Page-1" stroke="none" stroke-width="1" fill="none" fill-rule="evenodd">
        <g id="2" fill="#2C3E50" fill-rule="nonzero">
            <path d="M11.7767961,0.242839063 C13.9031216,-0.0809463543 16.0648795,-0.0809463543 18.191205,0.242839063 C19.6864052,0.54748751 21.1816054,0.791206267 22.5870936,1.18724925 C23.6328722,1.45870298 24.4685325,2.25826563 24.7999899,3.30455595 C25.4080379,5.05120705 26.04599,6.78262572 26.7138461,8.49881197 C26.8334621,8.78822799 27.1923102,9.21473582 27.4016382,9.18427097 C28.587606,8.98010686 29.7164847,9.77837721 29.9434785,10.9816968 C30.0188405,11.2918191 30.0188405,11.6159847 29.9434785,11.926107 L28.2389503,12.3983121 C28.3445373,13.0027972 28.4144388,13.6131901 28.4482783,14.2262028 L28.4482783,22.6649647 C28.4290366,23.1752045 28.2509994,23.6659873 27.9399103,24.0663476 C26.3620091,24.3764377 24.743472,24.4073545 23.1552696,24.1577421 C22.0488215,23.4418183 22.7366136,22.2384569 22.3777655,21.2635819 L7.84441962,21.2635819 C7.56033158,22.2993866 7.39585956,24.0358828 7.06691552,24.1577421 C5.44452782,24.4474193 3.78504656,24.4474193 2.16265887,24.1577421 C1.81840025,23.6920001 1.62974708,23.1261035 1.6243868,22.5431054 C1.53467479,21.3245116 1.53467479,20.1668475 1.53467479,18.9787185 C1.53467479,16.7700173 1.53467479,14.5613161 1.6243868,12.3373824 L0.0394745893,11.9108746 C-0.0131581964,11.6649673 -0.0131581964,11.4103931 0.0394745893,11.1644859 C0.488034649,9.94589209 1.08611473,9.00148191 2.62617093,9.13857371 C2.80559496,9.13857371 3.149491,8.77299557 3.25415501,8.49881197 C3.82571968,7.14111217 4.32484748,5.75293774 4.74935521,4.34036067 C5.32442328,2.25353822 7.1142514,0.752275665 9.23495581,0.577952354 C10.0573159,0.425628131 10.90958,0.319001175 11.7319401,0.181909374 L11.7767961,0.242839063 Z M5.16801127,9.65647607 C11.6156933,11.0464726 18.2775478,11.0464726 24.7252299,9.65647607 C24.1720058,7.96567719 23.6187817,6.45766738 23.2300297,4.93442514 C22.9918348,3.73688016 21.9471485,2.88417462 20.7479973,2.90851297 C17.6529329,2.77142117 14.5429165,2.66479421 11.4478521,2.63432937 C10.4366069,2.67471578 9.43324752,2.83315323 8.4574517,3.10653446 C8.00780533,3.20034432 7.61429564,3.47492641 7.36595556,3.86815558 C6.52864345,5.71127868 5.90065936,7.61533147 5.16801127,9.65647607 Z M6.43893144,16.8461794 C6.97389583,16.8756429 7.51041829,16.8449933 8.03879565,16.7547849 C8.4519916,16.6576478 8.80526657,16.3863382 9.01067578,16.0083962 C9.08543579,15.7799098 8.74153974,15.2163102 8.4424997,15.0792184 C7.22627054,14.4987068 5.97819942,13.9901155 4.70449921,13.5559762 C4.07651512,13.3427223 3.35881903,13.3884195 3.20929901,14.2871325 C2.91025897,15.6123532 3.20929901,16.3435095 4.18117914,16.5567634 C4.94373124,16.7090876 5.67637933,16.7395525 6.51369145,16.8157146 L6.43893144,16.8461794 Z M23.6785897,16.8461794 C24.4660073,16.7889489 25.2497005,16.687243 26.026054,16.541531 C27.1474542,16.2825798 26.9082221,15.353402 26.8783181,14.5460836 C26.8484141,13.7387653 26.4297581,13.3579547 25.816726,13.5407438 C24.2814678,14.005883 22.7821608,14.5863049 21.3311254,15.2772399 C20.6732373,15.5971208 20.9124693,16.4806013 21.6600694,16.6481579 C22.3286965,16.7503228 23.0027573,16.811363 23.6785897,16.830947 L23.6785897,16.8461794 Z" id="Shape"></path>
        </g>
    </g>
</svg>