<?xml version="1.0" encoding="UTF-8" standalone="no"?>
<svg width="30px" height="29px" viewBox="0 0 30 29" version="1.1" xmlns="http://www.w3.org/2000/svg" xmlns:xlink="http://www.w3.org/1999/xlink">
    <!-- Generator: Sketch 48.1 (47250) - http://www.bohemiancoding.com/sketch -->
    <title>3</title>
    <desc>Created with Sketch.</desc>
    <defs></defs>
    <g id="Page-1" stroke="none" stroke-width="1" fill="none" fill-rule="evenodd">
        <g id="3" fill="#2C3E50" fill-rule="nonzero">
            <path d="M29.9253809,10.939359 C29.7495802,10.4016895 29.2821054,10.0082861 28.7167423,9.92725532 L20.1661061,8.44075144 L16.34232,0.826303387 C16.0926225,0.320251556 15.5711238,0 14.9998229,0 C14.428419,0 13.9089796,0.320217605 13.6532757,0.826303387 L9.83144599,8.44075144 L1.28283483,9.9786382 C0.717437415,10.0597029 0.248006198,10.4530724 0.0741618498,10.9907418 C-0.103629598,11.5264415 0.0441981657,12.1174976 0.45377064,12.510867 L6.63899108,18.1663468 L5.02277067,26.385639 C4.9268731,26.941104 5.15460405,27.5084892 5.62012248,27.8366197 C6.06436085,28.276176 6.98063895,28.06589 7.1983477,27.9532415 L14.9998229,24.1816086 L22.7513242,27.9532415 C22.969033,28.06589 23.8302232,28.3306833 24.3295151,27.8366197 C24.7910521,27.5084892 25.0267459,26.9411379 24.928892,26.385639 L23.3626111,18.1663468 L29.5498223,12.4574805 C29.957404,12.0661147 30.1032067,11.4750587 29.9253809,10.939359 Z" id="Shape"></path>
        </g>
    </g>
</svg>