<?xml version="1.0" encoding="UTF-8" standalone="no"?>
<svg width="29px" height="31px" viewBox="0 0 29 31" version="1.1" xmlns="http://www.w3.org/2000/svg" xmlns:xlink="http://www.w3.org/1999/xlink">
    <!-- Generator: Sketch 48.1 (47250) - http://www.bohemiancoding.com/sketch -->
    <title>4</title>
    <desc>Created with Sketch.</desc>
    <defs></defs>
    <g id="Page-1" stroke="none" stroke-width="1" fill="none" fill-rule="evenodd">
        <g id="4" fill="#2C3E50" fill-rule="nonzero">
            <path d="M0.996734122,17.8796162 C-0.146230633,20.6055338 -0.332341702,23.2064908 0.586075993,23.6926765 C1.21925823,24.0272706 2.21185064,23.2652155 3.14038309,21.8660659 C3.50855936,23.3894933 4.41888527,24.7702061 5.71896555,25.877098 C4.35549961,26.3871833 3.46472886,27.2195715 3.46472886,28.1639463 C3.46472886,29.7153703 5.87473243,30.9704396 8.84981239,30.9704396 C11.5329137,30.9704396 13.7554576,29.9509519 14.1654414,28.610527 C14.2760292,28.6084784 14.6994993,28.6084784 14.8060412,28.610527 C15.2180479,29.9489034 17.4419404,30.9704396 20.1236931,30.9704396 C23.0980988,30.9704396 25.5087767,29.7140046 25.5087767,28.1639463 C25.5087767,27.22162 24.6186802,26.3871833 23.2538657,25.877098 C24.5525973,24.7688404 25.4656205,23.3894933 25.8317738,21.8660659 C26.7609805,23.2652155 27.7508757,24.0272706 28.3847323,23.6926765 C29.30315,23.2064908 29.1224334,20.604851 27.9747485,17.8796162 C27.0765602,15.7375311 25.8573978,14.1601589 24.9254938,13.8119079 C24.9396544,13.6760217 24.9457232,13.5374042 24.9457232,13.3994694 C24.9457232,12.5718612 24.7184789,11.8063918 24.3307475,11.1829542 C24.3374907,11.1351551 24.3374907,11.0853074 24.3374907,11.0375082 C24.3374907,10.6564806 24.2478067,10.2993527 24.0954114,9.99002383 C23.8594009,4.42210488 20.27946,0 14.4864156,0 C8.6899996,0 5.10871001,4.42210488 4.87539685,9.99002386 C4.7209786,10.3007184 4.63196897,10.6578464 4.63196897,11.0375082 C4.63196897,11.0853074 4.63534056,11.1351551 4.63736351,11.1829542 C4.25232931,11.8063918 4.02508502,12.5704955 4.02508502,13.3994695 C4.02508502,13.5367213 4.03047955,13.6739732 4.04194292,13.8119079 C3.11678205,14.1601589 1.89357373,15.7388968 0.996734122,17.8796162 L0.996734122,17.8796162 Z" id="Shape"></path>
        </g>
    </g>
</svg>