<?xml version="1.0" encoding="UTF-8" standalone="no"?>
<svg width="21px" height="32px" viewBox="0 0 21 32" version="1.1" xmlns="http://www.w3.org/2000/svg" xmlns:xlink="http://www.w3.org/1999/xlink">
    <!-- Generator: Sketch 48.1 (47250) - http://www.bohemiancoding.com/sketch -->
    <title>5</title>
    <desc>Created with Sketch.</desc>
    <defs></defs>
    <g id="Page-1" stroke="none" stroke-width="1" fill="none" fill-rule="evenodd">
        <g id="5" fill="#2C3E50" fill-rule="nonzero">
            <path d="M0.0106447348,15.9757628 C0.0106447348,10.8749925 0.015822103,5.77391651 0.00304677894,0.673282031 C0.0022062971,0.22114738 0.00919910607,-0.00252563241 0.597469161,2.15093924e-05 C7.01901943,0.0294664686 13.4404688,0.0267834793 19.8618846,0.00154979447 C20.3822438,2.15093924e-05 20.4396991,0.143782193 20.4393629,0.610554419 C20.4249066,10.8676907 20.4227886,21.1251666 20.4444394,31.3817595 C20.4454144,31.9073877 20.3046505,31.9662096 19.8420157,31.9651229 C13.4204654,31.9483797 6.99901597,31.9451533 0.57760017,31.9705228 C0.0572410485,31.9720511 -0.00129010739,31.8284602 2.10442907e-05,31.3615182 C0.01827631,26.2326614 0.0114179781,21.1043819 0.0114179781,15.9761024 L0.0106447348,15.9757628 Z M1.95003979,14.5344881 C1.95003979,17.8049503 1.97017773,21.0756841 1.93450768,24.3459765 C1.92704421,25.0497008 2.07150623,25.3037357 2.8263934,25.2986415 C7.73732884,25.2652909 12.6485669,25.2737134 17.5596704,25.2930717 C18.176147,25.2948038 18.426308,25.1518582 18.4239547,24.4664053 C18.4003203,17.8425121 18.4030435,11.2178717 18.418542,4.59370685 C18.4195169,3.9969285 18.2741808,3.78062522 17.6384067,3.7838516 C12.6723021,3.80942491 7.70643273,3.81146262 2.74036168,3.78222143 C2.05852919,3.77933467 1.93235605,4.01812072 1.93746618,4.64020068 C1.96395817,7.93817196 1.95027512,11.2369244 1.94997255,14.5349636 L1.95003979,14.5344881 Z M10.1689101,2.33836561 C11.1535177,2.33836561 12.1377556,2.33850146 13.1226995,2.33826372 C13.513927,2.33816184 13.8600374,2.2325064 13.8776875,1.77004733 C13.8979935,1.24163427 13.5217266,1.15866537 13.0986281,1.15893707 C11.1569469,1.16019366 9.21529936,1.16104271 7.27405525,1.15638993 C6.84709047,1.15540503 6.45586298,1.25297754 6.46836935,1.75360977 C6.48053952,2.24272893 6.87573409,2.34458064 7.29836198,2.34254292 C8.25489756,2.33731279 9.21224001,2.34155803 10.1692799,2.34002974 L10.1689101,2.33836561 Z M11.755807,28.0582488 C11.7504616,27.1663417 11.0758572,26.4675418 10.205387,26.4533797 C9.32947041,26.4390478 8.56221134,27.2020696 8.5668508,28.083075 C8.57226351,28.9796689 9.31780453,29.6913403 10.2283153,29.6690953 C11.1225544,29.6474616 11.7608499,28.974201 11.7555045,28.0584187 L11.755807,28.0582488 Z" id="Shape"></path>
        </g>
    </g>
</svg>