<?xml version="1.0" encoding="UTF-8" standalone="no"?>
<svg width="30px" height="24px" viewBox="0 0 30 24" version="1.1" xmlns="http://www.w3.org/2000/svg" xmlns:xlink="http://www.w3.org/1999/xlink">
    <!-- Generator: Sketch 48.1 (47250) - http://www.bohemiancoding.com/sketch -->
    <title>6</title>
    <desc>Created with Sketch.</desc>
    <defs></defs>
    <g id="Page-1" stroke="none" stroke-width="1" fill="none" fill-rule="evenodd">
        <g id="6" fill="#203646" fill-rule="nonzero">
            <path d="M23.9337931,14.1682759 C23.9337931,13.6165517 23.7462069,13.142069 23.36,12.7227586 L12.0606896,1.44551725 C11.6634483,1.04827587 11.1117241,0.706206918 10.4496552,0.419310356 C9.76551721,0.132413793 9.15862067,0 8.60689652,0 L2.03034482,3.23275861e-08 C1.47862067,3.23275861e-08 1.00413792,0.209655194 0.606896541,0.606896573 C0.209655162,1.00413795 0,1.4786207 0,2.03034485 L0,8.58482761 C0,9.13655176 0.132413793,9.76551727 0.419310356,10.4275862 C0.706206918,11.1117242 1.0262069,11.6413794 1.44551725,12.0386207 L12.7448276,23.3379311 C13.142069,23.7351724 13.6165517,23.9117242 14.1682759,23.9117242 C14.72,23.9117242 15.1944828,23.7241379 15.6137931,23.3379311 L23.36,15.5917242 C23.7241379,15.1944828 23.9337931,14.72 23.9337931,14.1682759 Z M6.47724139,6.49931037 C6.08000001,6.89655175 5.60551726,7.08413796 5.05379311,7.08413796 C4.50206897,7.08413796 4.02758622,6.89655175 3.63034484,6.49931037 C3.23310346,6.10206899 3.04551724,5.62758624 3.04551724,5.07586209 C3.04551724,4.52413794 3.23310346,4.04965519 3.63034484,3.65241381 C4.02758622,3.25517244 4.50206897,3.06758622 5.05379311,3.06758622 C5.60551726,3.06758622 6.08000001,3.25517244 6.47724139,3.65241381 C6.87448277,4.04965519 7.05103448,4.52413794 7.05103448,5.07586209 C7.08413793,5.63862071 6.87448277,6.10206899 6.47724139,6.49931037 Z M29.417931,12.7117242 L18.1186207,1.44551725 C17.7213793,1.04827587 17.1696552,0.706206918 16.5075862,0.419310356 C15.8234483,0.132413825 15.2165517,3.23275859e-08 14.6648276,3.23275859e-08 L11.1117241,3.23275859e-08 C11.6634483,3.23275859e-08 12.2924138,0.132413825 12.9544828,0.419310388 C13.6386207,0.70620695 14.1682759,1.02620693 14.5655173,1.44551728 L25.8648276,12.7117242 C26.262069,13.1310345 26.4496552,13.6055173 26.4496552,14.1572414 C26.4496552,14.7089656 26.262069,15.1834483 25.8648276,15.5806897 L18.4606897,23.0068966 C18.7806897,23.3268966 19.0675862,23.5586207 19.2993103,23.7131035 C19.5310345,23.8675862 19.8510345,23.9227586 20.2262069,23.9227586 C20.777931,23.9227586 21.2524138,23.7351724 21.6717241,23.337931 L29.417931,15.5696552 C29.8151724,15.1724138 29.9917241,14.697931 29.9917241,14.1462069 C29.9917241,13.5944827 29.8041379,13.142069 29.417931,12.7117242 Z" id="Shape"></path>
        </g>
    </g>
</svg>