<?xml version="1.0" encoding="UTF-8" standalone="no"?>
<svg width="27px" height="30px" viewBox="0 0 27 30" version="1.1" xmlns="http://www.w3.org/2000/svg" xmlns:xlink="http://www.w3.org/1999/xlink">
    <!-- Generator: Sketch 48.1 (47250) - http://www.bohemiancoding.com/sketch -->
    <title>7</title>
    <desc>Created with Sketch.</desc>
    <defs></defs>
    <g id="Page-1" stroke="none" stroke-width="1" fill="none" fill-rule="evenodd">
        <g id="7" fill="#203646" fill-rule="nonzero">
            <path d="M15.0514341,23.0249157 C15.3128371,22.2304537 15.9955604,21.6620917 16.8331881,21.5418309 L18.8951661,21.2460216 L19.8172731,19.4015168 C20.1917868,18.6522627 20.9502862,18.1867341 21.79674,18.1867341 C22.6431016,18.1867341 23.401601,18.6521716 23.7762069,19.4014561 L24.6983139,21.2460216 L24.7826087,21.2581053 L24.7826087,0.736988214 C24.7826087,0.329996082 24.4484126,6.07224367e-05 24.0361646,6.07224367e-05 L21.0922741,6.07224367e-05 L21.0922741,8.68212435 C21.0922434,8.97550481 20.8513835,9.21329387 20.5542452,9.21338495 C20.5542144,9.21338495 20.5541529,9.21338495 20.5541221,9.21338495 C20.4262499,9.21338495 20.3088646,9.16933082 20.2165432,9.09579595 L18.2268661,7.52041306 L16.2361742,9.09661571 C16.1448369,9.16948263 16.0273286,9.21359748 15.8993333,9.21359748 C15.6021949,9.21359748 15.3613658,8.97583878 15.3613658,8.68248869 C15.3613658,8.6823976 15.3613658,8.68230652 15.3613658,8.68212435 L15.3613658,6.07224367e-05 L5.93996923,6.07224367e-05 L5.93996923,27.826087 L16.9054276,27.826087 L17.1019411,26.6947369 L15.6099755,25.2589852 C15.0038895,24.6756855 14.789908,23.8196509 15.0514648,23.0249461 L15.0514341,23.0249157 Z M0,0.736957852 L0,27.0890987 C0,27.4960909 0.334196116,27.8260262 0.746444109,27.8260262 L3.8650133,27.8260262 L3.8650133,0 L0.746444109,0 C0.334196116,0 0,0.32993536 0,0.736927491 L0,0.736957852 Z" id="Shape"></path>
            <path d="M26.9224577,23.7687789 C26.8374773,23.512682 26.6147741,23.3250953 26.3443873,23.2927724 L23.5981933,22.8933644 L22.3626096,20.3878749 C22.2464986,20.1562224 22.010984,20 21.7390107,20 C21.4670374,20 21.2315527,20.1562224 21.1172377,20.3838907 L19.8798281,22.8934243 L17.1170212,23.2951689 C16.7784165,23.345915 16.5217391,23.6349938 16.5217391,23.9840153 C16.5217391,24.1792708 16.60205,24.3557736 16.7314812,24.4821295 L18.7308412,26.4325578 L18.258884,29.1863555 C18.2525382,29.221704 18.2488863,29.2624147 18.2488863,29.3039342 C18.2488863,29.6883341 18.5602218,29.9999101 18.9443249,29.9999101 C19.062651,29.9999101 19.1741223,29.9703133 19.2716448,29.9181293 L21.7390706,28.619761 L24.210238,29.9199267 C24.3040787,29.9703432 24.41555,30 24.5339359,30 C24.6875832,30 24.8295265,29.9501227 24.9445599,29.8656757 C25.1171848,29.7390202 25.2293147,29.5345681 25.2293147,29.3039641 C25.2293147,29.2624147 25.2256629,29.221674 25.2187183,29.1821616 L24.7473598,26.4325278 L26.7465402,24.4822494 C26.876181,24.3557437 26.9565217,24.1791809 26.9565217,23.9838655 C26.9565217,23.9069975 26.9440695,23.8330053 26.9210808,23.763896 L26.9224577,23.7687789 Z" id="Shape"></path>
        </g>
    </g>
</svg>