<?xml version="1.0" encoding="UTF-8" standalone="no"?>
<svg width="26px" height="30px" viewBox="0 0 26 30" version="1.1" xmlns="http://www.w3.org/2000/svg" xmlns:xlink="http://www.w3.org/1999/xlink">
    <!-- Generator: Sketch 48.1 (47250) - http://www.bohemiancoding.com/sketch -->
    <title>8</title>
    <desc>Created with Sketch.</desc>
    <defs></defs>
    <g id="Page-1" stroke="none" stroke-width="1" fill="none" fill-rule="evenodd">
        <g id="8" fill="#2C3E50" fill-rule="nonzero">
            <path d="M18.3680878,0 L18.3680878,7.33082706 L25.7142857,7.33082706 L18.3680878,0 Z M16.5308901,0 L3.67374721,0 C1.64494092,0.000357129514 0.000357909903,1.64135429 0,3.66573696 L0,25.6575713 C0.000357909903,27.681954 1.64494092,29.3229511 3.67374721,29.3233083 L22.0398902,29.3233083 C24.0689497,29.3233083 25.7139277,27.6822066 25.7142857,25.6575713 L25.7142857,9.16337213 L16.5308901,9.16337213 L16.5308901,0 Z M18.3680878,23.8250262 L7.34749443,23.8250262 L7.34749443,21.9924812 L18.3680878,21.9924812 L18.3680878,23.8250262 Z M18.3680878,18.3273911 L7.34749443,18.3273911 L7.34749443,16.494846 L18.3680878,16.494846 L18.3680878,18.3273911 Z M18.3680878,10.9959172 L18.3680878,12.8284622 L7.34749443,12.8284622 L7.34749443,10.9959172 L18.3680878,10.9959172 Z" id="Shape"></path>
        </g>
    </g>
</svg>