<?xml version="1.0" encoding="UTF-8" standalone="no"?>
<svg width="25px" height="30px" viewBox="0 0 25 30" version="1.1" xmlns="http://www.w3.org/2000/svg" xmlns:xlink="http://www.w3.org/1999/xlink">
    <!-- Generator: Sketch 48.1 (47250) - http://www.bohemiancoding.com/sketch -->
    <title>9</title>
    <desc>Created with Sketch.</desc>
    <defs></defs>
    <g id="Page-1" stroke="none" stroke-width="1" fill="none" fill-rule="evenodd">
        <g id="9" fill-rule="nonzero">
            <path d="M7.60580094,4.55636123 C8.03974011,4.55636123 8.36519447,4.23090686 8.36519447,3.79696769 L8.36519447,0.759393533 C8.36519447,0.325454363 8.03974011,0 7.60580094,0 C7.17186177,0 6.8464074,0.325454363 6.84640737,0.759393533 L6.84640737,3.79696769 C6.84640737,4.23090686 7.17186174,4.55636123 7.60580094,4.55636123 Z M16.7185234,4.55636123 C17.1524626,4.55636123 17.4779169,4.23090686 17.4779169,3.79696769 L17.4779169,0.759393533 C17.4779169,0.325454363 17.1524626,0 16.7185234,0 C16.2845842,0 15.9591299,0.325454363 15.9591299,0.759393533 L15.9591299,3.79696769 C15.9591299,4.23090686 16.2845842,4.55636123 16.7185234,4.55636123 Z" id="Shape" fill="#000000"></path>
            <path d="M22.7936717,2.27818063 L18.2373105,2.27818063 L18.2373105,3.79696769 C18.2373105,4.62868442 17.5502401,5.31575476 16.7185234,5.31575479 C15.8868067,5.31575479 15.1997363,4.62868445 15.1997363,3.79696769 L15.1997363,2.27818063 L9.124588,2.27818063 L9.124588,3.79696769 C9.124588,4.62868442 8.43751766,5.31575476 7.60580094,5.31575479 C6.77408421,5.31575479 6.08701387,4.62868445 6.08701384,3.79696769 L6.08701384,2.27818063 L1.53065262,2.27818063 C0.698935888,2.27818063 0.0118655502,2.96525097 0.0118655212,3.79696769 L0.0118655212,28.1337226 C0.0118655212,28.9654393 0.698935859,29.6525097 1.53065262,29.6525097 L22.7936717,29.6525097 C23.6253884,29.6525097 24.3124588,28.9654393 24.3124588,28.1337226 L24.3124588,3.79696769 C24.3124588,2.96525097 23.6253885,2.27818063 22.7936717,2.27818063 Z M19.0690272,16.7428195 L17.116301,16.7428195 C16.7908466,16.7428195 16.5015538,16.5258499 16.393069,16.2003955 L15.3443827,12.9096902 L12.2344854,20.0335248 C12.1260006,20.286656 11.8728694,20.467464 11.5835766,20.5036256 L11.547415,20.5036256 C11.2581222,20.5036256 11.0049911,20.3589792 10.8603447,20.105848 L8.50984086,15.7302947 L7.56963932,16.5258499 C7.42499293,16.6343347 7.24418496,16.7066579 7.06337696,16.7066579 L5.25529711,16.7066579 C4.82135794,16.7066579 4.49590358,16.3812035 4.49590358,15.9472643 C4.49590358,15.5133252 4.82135794,15.1878708 5.25529711,15.1878708 L6.77408418,15.1878708 L8.22054808,13.9583765 C8.40135605,13.8137301 8.61832564,13.7414069 8.83529522,13.7775685 C9.05226481,13.8137301 9.26923439,13.9583765 9.37771917,14.1753461 L11.4389302,18.044637 L14.7296356,10.4868632 C14.874282,10.1975704 15.1635747,10.0167624 15.4528675,10.0167624 C15.7783219,10.0167624 16.0314531,10.233732 16.1399379,10.5591864 L17.6587249,15.2240324 L19.0690272,15.2240324 C19.5029664,15.2240324 19.8284207,15.5494867 19.8284207,15.9834259 C19.8284207,16.4173651 19.5029664,16.7428195 19.0690272,16.7428195 Z" id="Shape" fill="#2C3E50"></path>
        </g>
    </g>
</svg>